<svg preserveAspectRatio="none" overflow="visible" style="display: block;" width="1920.04" height="1347.37" viewBox="0 0 1920.04 1347.37" fill="none" xmlns="http://www.w3.org/2000/svg">
<g id="Effect 6">
<g id="Vector">
<path d="M305.75 4.71743C314.78 3.10809 323.88 1.53618 332.97 0.00169543H0.02035L0.02035 114.065C38.4803 88.2907 78.9604 67.3943 121 51.7126C184.42 28.0591 249.98 14.6853 305.75 4.71743Z" fill="url(#paint0_linear_0_88)" style="mix-blend-mode:overlay"/>
</g>
<g id="Vector_2">
<path d="M191.56 236.537C254.97 212.883 320.54 199.51 376.31 189.542C399.23 185.45 422.56 181.657 445.12 177.989C492.93 170.217 542.38 162.195 589.8 150.893C641.92 138.48 686.31 123.284 725.52 104.434C772.87 81.6787 820.25 47.5208 870.36 0.00169543H713.35C705.64 4.31821 697.94 8.32284 690.24 12.0156C651.03 30.8536 606.64 46.0612 554.52 58.4743C507.1 69.7771 457.66 77.7988 409.84 85.571C387.28 89.2388 363.95 93.0189 341.02 97.1233C285.25 107.091 219.69 120.477 156.27 144.118C101.16 164.678 48.7204 194.17 0.02035 231.921L0.02035 353.644C4.29035 349.877 8.59035 346.147 12.9203 342.466C67.7903 295.92 127.89 260.278 191.56 236.537Z" fill="url(#paint1_linear_0_88)" style="mix-blend-mode:overlay"/>
</g>
<g id="Vector_3">
<path d="M262.161 421.461C325.571 397.807 391.141 384.433 446.911 374.465C469.841 370.373 493.161 366.581 515.731 362.913C563.541 355.141 612.981 347.119 660.411 335.816C712.531 323.403 756.921 308.208 796.131 289.358C843.601 266.54 891.111 232.257 941.381 184.551C987.741 140.55 1032.29 89.0762 1073.95 40.1349C1081.4 31.3896 1089 22.4072 1096.35 13.7118C1100.21 9.14579 1104.08 4.57976 1107.96 0.00125675H993.481C965.291 32.0134 936.061 63.6138 906.071 92.0828C855.811 139.789 808.301 174.084 760.821 196.889C721.611 215.727 677.221 230.935 625.101 243.348C577.681 254.651 528.241 262.673 480.421 270.445C457.861 274.113 434.531 277.893 411.601 281.997C355.831 291.965 290.271 305.351 226.851 328.992C163.181 352.733 103.081 388.376 48.211 434.922C31.691 448.932 15.661 463.653 0.0110158 478.873V607.108C26.661 579.051 54.341 552.129 83.511 527.39C138.381 480.844 198.481 445.201 262.151 421.461H262.161Z" fill="url(#paint2_linear_0_88)" style="mix-blend-mode:overlay"/>
</g>
<g id="Vector_4">
<path d="M332.761 606.397C396.171 582.743 461.741 569.37 517.511 559.402C540.441 555.297 563.771 551.517 586.331 547.849C634.141 540.077 683.581 532.056 731.011 520.753C783.131 508.34 827.521 493.144 866.731 474.294C914.201 451.476 961.711 417.194 1011.98 369.487C1058.34 325.486 1102.89 274.013 1144.55 225.071C1152 216.326 1159.6 207.344 1166.95 198.648C1225.73 129.21 1285.94 58.1119 1354.33 0.0135308H1224.14C1192.33 34.5207 1161.81 70.5749 1131.66 106.192C1124.31 114.875 1116.7 123.858 1109.26 132.615C1067.6 181.569 1023.05 233.031 976.691 277.032C926.431 324.738 878.921 359.033 831.441 381.838C792.231 400.676 747.841 415.884 695.721 428.297C648.301 439.6 598.861 447.621 551.041 455.394C528.481 459.061 505.151 462.854 482.221 466.946C426.451 476.914 360.891 490.3 297.471 513.941C233.801 537.682 173.701 573.324 118.831 619.87C76.5712 655.713 37.4512 696.133 0.0311621 737.951V870.703C48.1212 814.825 98.4112 759.608 154.131 712.339C209.001 665.793 269.101 630.15 332.771 606.409L332.761 606.397Z" fill="url(#paint3_linear_0_88)" style="mix-blend-mode:overlay"/>
</g>
<g id="Vector_5">
<path d="M1480.76 27.061C1372.09 90.3741 1285.74 192.386 1202.22 291.042C1194.87 299.725 1187.26 308.708 1179.82 317.465C1138.16 366.419 1093.61 417.881 1047.25 461.882C996.99 509.588 949.48 543.883 902 566.688C862.79 585.526 818.4 600.734 766.28 613.147C718.86 624.45 669.42 632.471 621.6 640.244C599.04 643.911 575.71 647.691 552.78 651.796C497.01 661.764 431.45 675.15 368.03 698.791C304.36 722.532 244.26 758.174 189.39 804.72C119.91 863.679 58.8903 934.977 0.02035 1004.52L0.02035 1138.53C9.68035 1127.2 19.2603 1115.88 28.7603 1104.67C89.6503 1032.7 152.62 958.281 224.68 897.151C279.55 850.605 339.66 814.963 403.32 791.222C466.73 767.568 532.3 754.195 588.07 744.227C611 740.122 634.33 736.342 656.89 732.674C704.7 724.902 754.14 716.88 801.57 705.578C853.69 693.165 898.08 677.969 937.29 659.119C984.76 636.301 1032.27 602.019 1082.54 554.312C1128.89 510.311 1173.45 458.838 1215.11 409.896C1222.56 401.151 1230.16 392.169 1237.51 383.486C1321.02 284.83 1407.38 182.817 1516.05 119.504C1623.22 57.0646 1739.54 38.1767 1852.04 19.9126C1869.25 17.1181 1887.05 14.2237 1904.35 11.2421C1909.5 10.3563 1914.75 9.43316 1920.04 8.4975V0.00169543H1533.49C1515.72 8.01096 1498.13 16.9559 1480.78 27.061H1480.76Z" fill="url(#paint4_linear_0_88)" style="mix-blend-mode:overlay"/>
</g>
<g id="Vector_6">
<path d="M99.3208 1289.49C160.211 1217.52 223.181 1143.1 295.241 1081.97C350.111 1035.43 410.211 999.786 473.881 976.045C537.301 952.391 602.861 939.018 658.631 929.05C681.551 924.945 704.881 921.165 727.451 917.497C775.261 909.725 824.701 901.703 872.131 890.401C924.251 877.988 968.641 862.792 1007.85 843.942C1055.32 821.124 1102.83 786.842 1153.1 739.135C1199.45 695.134 1244.01 643.66 1285.67 594.719C1293.12 585.974 1300.72 576.991 1308.07 568.296C1391.58 469.64 1477.94 367.628 1586.61 304.315C1692.96 242.349 1808.33 223.274 1920.03 205.135V106.94C1909.07 108.762 1898.08 110.558 1887.31 112.305C1774.82 130.569 1658.49 149.457 1551.32 211.896C1442.65 275.21 1356.3 377.222 1272.79 475.878C1265.44 484.561 1257.83 493.543 1250.39 502.301C1208.73 551.255 1164.18 602.716 1117.82 646.717C1067.56 694.423 1020.05 728.718 972.571 751.524C933.361 770.374 888.971 785.569 836.851 797.982C789.431 809.285 739.981 817.307 692.171 825.079C669.611 828.747 646.281 832.539 623.361 836.631C567.591 846.599 502.031 859.985 438.611 883.626C374.941 907.367 314.841 943.01 259.971 989.556C187.911 1050.69 124.941 1125.1 64.0508 1197.07C43.1108 1221.82 21.7308 1247.09 0.0307541 1271.71V1347.35H49.9608C66.6408 1328.12 83.1108 1308.65 99.3208 1289.49Z" fill="url(#paint5_linear_0_88)" style="mix-blend-mode:overlay"/>
</g>
<g id="Vector_7">
<path d="M544.439 1160.87C607.849 1137.22 673.419 1123.84 729.189 1113.87C752.119 1109.77 775.449 1105.99 798.009 1102.32C845.819 1094.55 895.259 1086.53 942.689 1075.22C994.809 1062.81 1039.2 1047.62 1078.41 1028.77C1125.88 1005.95 1173.39 971.665 1223.66 923.959C1270.01 879.958 1314.57 828.484 1356.23 779.543C1363.68 770.798 1371.28 761.815 1378.63 753.12C1462.14 654.464 1548.5 552.452 1657.17 489.139C1741.25 440.16 1830.96 417.978 1920.03 401.873V303.341C1819.49 320.171 1717.08 341.267 1621.89 396.72C1513.22 460.033 1426.86 562.045 1343.35 660.701C1336 669.384 1328.39 678.367 1320.95 687.112C1279.29 736.066 1234.74 787.527 1188.38 831.528C1138.12 879.235 1090.61 913.53 1043.13 936.335C1003.92 955.173 959.529 970.38 907.409 982.793C859.989 994.096 810.549 1002.12 762.729 1009.89C740.169 1013.56 716.839 1017.34 693.909 1021.44C638.139 1031.41 572.579 1044.8 509.159 1068.44C445.489 1092.18 385.389 1127.82 330.519 1174.37C269.949 1225.75 215.799 1286.52 163.919 1347.33H281.519C308.419 1318.97 336.349 1291.76 365.809 1266.77C420.679 1220.23 480.779 1184.58 544.449 1160.84L544.439 1160.87Z" fill="url(#paint6_linear_0_88)" style="mix-blend-mode:overlay"/>
</g>
<g id="Vector_8">
<path d="M1692.44 581.546C1583.77 644.859 1497.42 746.871 1413.9 845.527C1406.55 854.21 1398.94 863.192 1391.5 871.95C1349.84 920.892 1305.29 972.365 1258.93 1016.37C1208.67 1064.07 1161.16 1098.37 1113.68 1121.17C1074.47 1140.01 1030.08 1155.21 977.96 1167.63C930.54 1178.93 881.1 1186.96 833.28 1194.73C810.72 1198.4 787.39 1202.18 764.46 1206.28C708.69 1216.25 643.12 1229.63 579.71 1253.28C521.58 1274.96 466.43 1306.58 415.51 1347.34H610.83C612.22 1346.8 613.61 1346.26 615.01 1345.73C678.42 1322.08 743.99 1308.7 799.76 1298.74C822.68 1294.64 846.01 1290.85 868.58 1287.18C916.39 1279.41 965.84 1271.39 1013.26 1260.09C1065.38 1247.67 1109.77 1232.48 1148.98 1213.63C1196.45 1190.81 1243.96 1156.53 1294.23 1108.82C1340.58 1064.82 1385.14 1013.35 1426.8 964.406C1434.25 955.661 1441.85 946.678 1449.2 937.983C1532.71 839.327 1619.07 737.315 1727.74 674.002C1789.62 637.948 1854.54 616.427 1920.03 601.157V501.017C1842.66 516.698 1765.43 539.017 1692.45 581.533L1692.44 581.546Z" fill="url(#paint7_linear_0_88)" style="mix-blend-mode:overlay"/>
</g>
<g id="Vector_9">
<path d="M1484.5 1030.45C1477.15 1039.13 1469.54 1048.12 1462.1 1056.87C1420.44 1105.81 1375.89 1157.29 1329.53 1201.29C1279.27 1249 1231.76 1283.29 1184.28 1306.1C1150.38 1322.39 1112.6 1335.95 1069.31 1347.34H1302.16C1322.69 1331.78 1343.51 1313.98 1364.82 1293.75C1411.17 1249.74 1455.73 1198.27 1497.39 1149.33C1504.84 1140.58 1512.44 1131.6 1519.79 1122.92C1603.3 1024.26 1689.66 922.25 1798.33 858.937C1837.86 835.908 1878.64 818.816 1920.01 805.48V702.532C1866.55 717.128 1813.76 736.915 1763.03 766.469C1654.36 829.782 1568.01 931.794 1484.49 1030.45H1484.5Z" fill="url(#paint8_linear_0_88)" style="mix-blend-mode:overlay"/>
</g>
<g id="Vector_10">
<path d="M1555.1 1215.37C1547.75 1224.06 1540.14 1233.04 1532.7 1241.8C1502.81 1276.92 1471.42 1313.32 1438.95 1347.35H1556.76C1560.52 1342.96 1564.26 1338.57 1567.97 1334.22C1575.42 1325.47 1583.02 1316.49 1590.37 1307.79C1673.88 1209.14 1760.24 1107.13 1868.91 1043.81C1885.74 1034.01 1902.79 1025.29 1920.02 1017.46V910.362C1890.75 921.552 1861.87 934.951 1833.63 951.406C1724.96 1014.72 1638.61 1116.73 1555.1 1215.39V1215.37Z" fill="url(#paint9_linear_0_88)" style="mix-blend-mode:overlay"/>
</g>
<g id="Vector_11">
<path d="M1670.72 1347.35H1790.8C1830.89 1307.15 1873.42 1270.34 1920.03 1240.54V1127.39C1914.74 1130.24 1909.46 1133.16 1904.2 1136.23C1814.91 1188.25 1740.68 1266.41 1670.72 1347.37V1347.35Z" fill="url(#paint10_linear_0_88)" style="mix-blend-mode:overlay"/>
</g>
<g id="Vector_12">
<path d="M341.03 97.1233C363.96 93.0189 387.29 89.2388 409.85 85.571C457.66 77.7988 507.1 69.7771 554.53 58.4743C606.65 46.0612 651.04 30.866 690.25 12.0156C697.95 8.31037 705.65 4.30574 713.36 0.00169543H332.97C323.88 1.53618 314.79 3.09562 305.75 4.71743C249.98 14.6853 184.42 28.0715 121 51.7126C78.9604 67.3943 38.4803 88.2907 0.02035 114.065L0.02035 231.921C48.7204 194.17 101.16 164.678 156.28 144.118C219.69 120.465 285.26 107.091 341.03 97.1233Z" fill="url(#paint11_linear_0_88)" style="mix-blend-mode:overlay"/>
</g>
<g id="Vector_13">
<path d="M226.859 328.991C290.269 305.337 355.839 291.964 411.609 281.996C434.539 277.891 457.869 274.111 480.429 270.444C528.239 262.671 577.679 254.65 625.109 243.347C677.229 230.934 721.619 215.739 760.829 196.888C808.299 174.07 855.809 139.788 906.079 92.0815C936.069 63.6125 965.299 32.0121 993.489 0H870.379C820.269 47.5066 772.879 81.677 725.539 104.432C686.329 123.27 641.939 138.478 589.819 150.891C542.399 162.194 492.949 170.216 445.139 177.988C422.579 181.656 399.249 185.448 376.329 189.54C320.559 199.508 254.989 212.894 191.579 236.535C127.909 260.276 67.8092 295.919 12.9392 342.465C8.60922 346.145 4.30922 349.862 0.0392164 353.643V478.871C15.6892 463.651 31.7192 448.943 48.2392 434.92C103.109 388.374 163.209 352.732 226.879 328.991H226.859Z" fill="url(#paint12_linear_0_88)" style="mix-blend-mode:overlay"/>
</g>
<g id="Vector_14">
<path d="M297.46 513.929C360.87 490.276 426.44 476.902 482.21 466.934C505.13 462.842 528.46 459.05 551.03 455.382C598.84 447.61 648.28 439.588 695.71 428.285C747.83 415.872 792.22 400.677 831.43 381.826C878.9 359.009 926.41 324.726 976.68 277.02C1023.03 233.019 1067.59 181.545 1109.25 132.604C1116.7 123.858 1124.3 114.876 1131.65 106.181C1161.8 70.563 1192.33 34.5214 1224.13 0.00169543H1107.96C1104.08 4.5802 1100.21 9.14623 1096.35 13.7123C1089 22.3952 1081.39 31.3775 1073.95 40.1353C1032.29 89.0891 987.74 140.55 941.38 184.552C891.12 232.258 843.61 266.553 796.13 289.358C756.92 308.196 712.53 323.404 660.41 335.817C612.99 347.12 563.55 355.141 515.73 362.914C493.17 366.581 469.84 370.374 446.91 374.466C391.14 384.434 325.58 397.82 262.16 421.461C198.49 445.202 138.39 480.844 83.5203 527.39C54.3503 552.129 26.6703 579.051 0.02035 607.109L0.02035 737.927C37.4403 696.121 76.5604 655.701 118.82 619.846C173.69 573.3 233.79 537.658 297.46 513.917V513.929Z" fill="url(#paint13_linear_0_88)" style="mix-blend-mode:overlay"/>
</g>
<g id="Vector_15">
<path d="M189.399 804.745C244.269 758.199 304.369 722.556 368.039 698.815C431.449 675.162 497.019 661.788 552.789 651.82C575.719 647.716 599.049 643.936 621.609 640.268C669.419 632.496 718.859 624.474 766.289 613.171C818.409 600.758 862.799 585.563 902.009 566.712C949.479 543.895 996.989 509.612 1047.26 461.906C1093.61 417.905 1138.17 366.431 1179.83 317.49C1187.28 308.744 1194.88 299.762 1202.23 291.067C1285.74 192.41 1372.1 90.3984 1480.77 27.0853C1498.12 16.9802 1515.71 8.0228 1533.48 0.0260115H1354.33C1285.94 58.1243 1225.73 129.222 1166.95 198.661C1159.6 207.344 1151.99 216.326 1144.55 225.084C1102.89 274.025 1058.34 325.499 1011.98 369.5C961.719 417.206 914.209 451.501 866.729 474.307C827.519 493.145 783.129 508.352 731.009 520.765C683.589 532.068 634.149 540.09 586.329 547.862C563.769 551.53 540.439 555.31 517.509 559.414C461.739 569.382 396.179 582.768 332.759 606.409C269.089 630.15 208.989 665.793 154.119 712.339C98.399 759.608 48.109 814.825 0.0189754 870.703V1004.53C58.889 934.989 119.909 863.691 189.399 804.745Z" fill="url(#paint14_linear_0_88)" style="mix-blend-mode:overlay"/>
</g>
<g id="Vector_16">
<path d="M1904.33 11.2165C1887.03 14.1982 1869.24 17.0925 1852.02 19.887C1739.53 38.1511 1623.2 57.039 1516.03 119.479C1407.36 182.792 1321 284.804 1237.49 383.46C1230.14 392.143 1222.53 401.125 1215.09 409.871C1173.43 458.824 1128.88 510.286 1082.52 554.287C1032.26 601.993 984.75 636.288 937.27 659.093C898.06 677.931 853.67 693.139 801.55 705.552C754.13 716.855 704.69 724.877 656.87 732.649C634.31 736.317 610.98 740.097 588.05 744.201C532.28 754.169 466.72 767.555 403.3 791.196C339.63 814.937 279.53 850.58 224.66 897.126C152.6 958.256 89.63 1032.67 28.74 1104.64C19.25 1115.86 9.66 1127.19 0 1138.5V1271.69C21.69 1247.06 43.07 1221.8 64.02 1197.05C124.91 1125.08 187.88 1050.66 259.94 989.532C314.81 942.986 374.91 907.343 438.58 883.602C501.99 859.949 567.56 846.575 623.33 836.607C646.25 832.515 669.58 828.723 692.14 825.055C739.95 817.283 789.4 809.261 836.82 797.958C888.94 785.545 933.33 770.35 972.54 751.499C1020.01 728.682 1067.52 694.399 1117.79 646.693C1164.14 602.692 1208.7 551.218 1250.36 502.277C1257.81 493.531 1265.41 484.549 1272.76 475.853C1356.27 377.197 1442.63 275.185 1551.29 211.872C1658.46 149.432 1774.78 130.545 1887.28 112.28C1898.05 110.534 1909.04 108.737 1920 106.916V8.47193C1914.71 9.40759 1909.47 10.3308 1904.31 11.2165H1904.33Z" fill="url(#paint15_linear_0_88)" style="mix-blend-mode:overlay"/>
</g>
<g id="Vector_17">
<path d="M509.16 1068.45C572.58 1044.8 638.14 1031.42 693.91 1021.46C716.84 1017.35 740.16 1013.57 762.73 1009.9C810.54 1002.13 859.98 994.11 907.41 982.807C959.53 970.394 1003.92 955.199 1043.13 936.349C1090.6 913.531 1138.11 879.248 1188.38 831.542C1234.73 787.541 1279.29 736.067 1320.95 687.126C1328.4 678.381 1336 669.398 1343.35 660.715C1426.86 562.059 1513.22 460.047 1621.89 396.734C1717.08 341.268 1819.49 320.172 1920.03 303.355V205.148C1808.33 223.287 1692.96 242.362 1586.61 304.328C1477.94 367.641 1391.59 469.653 1308.07 568.309C1300.72 576.992 1293.11 585.975 1285.67 594.732C1244.01 643.686 1199.46 695.148 1153.1 739.149C1102.84 786.855 1055.33 821.15 1007.85 843.955C968.64 862.793 924.25 878.001 872.13 890.414C824.71 901.717 775.26 909.738 727.45 917.511C704.89 921.178 681.56 924.959 658.63 929.063C602.86 939.031 537.3 952.417 473.88 976.058C410.21 999.799 350.11 1035.44 295.24 1081.99C223.18 1143.12 160.21 1217.53 99.3201 1289.5C83.1101 1308.67 66.6301 1328.13 49.9601 1347.37H163.92C215.81 1286.56 269.95 1225.78 330.52 1174.41C385.39 1127.86 445.49 1092.22 509.16 1068.48V1068.45Z" fill="url(#paint16_linear_0_88)" style="mix-blend-mode:overlay"/>
</g>
<g id="Vector_18">
<path d="M1657.16 489.128C1548.49 552.441 1462.14 654.453 1378.62 753.109C1371.27 761.792 1363.66 770.774 1356.22 779.532C1314.56 828.486 1270.01 879.947 1223.65 923.948C1173.39 971.655 1125.88 1005.95 1078.4 1028.75C1039.19 1047.59 994.801 1062.8 942.681 1075.21C895.261 1086.52 845.822 1094.54 798.002 1102.31C775.442 1105.98 752.112 1109.76 729.182 1113.86C673.412 1123.83 607.852 1137.22 544.432 1160.86C480.762 1184.6 420.662 1220.24 365.792 1266.79C336.332 1291.78 308.402 1318.98 281.502 1347.34H415.512C466.432 1306.58 521.582 1274.95 579.712 1253.28C643.122 1229.62 708.692 1216.25 764.462 1206.28C787.392 1202.18 810.722 1198.4 833.282 1194.73C881.092 1186.96 930.532 1178.93 977.962 1167.63C1030.08 1155.22 1074.47 1140.02 1113.68 1121.17C1161.15 1098.36 1208.66 1064.07 1258.93 1016.37C1305.28 972.366 1349.84 920.892 1391.5 871.951C1398.95 863.205 1406.55 854.223 1413.9 845.527C1497.41 746.871 1583.77 644.859 1692.44 581.546C1765.42 539.03 1842.65 516.711 1920.02 501.029V401.874C1830.94 417.98 1741.23 440.162 1657.16 489.14V489.128Z" fill="url(#paint17_linear_0_88)" style="mix-blend-mode:overlay"/>
</g>
<g id="Vector_19">
<path d="M1449.2 937.981C1441.85 946.664 1434.24 955.647 1426.8 964.404C1385.14 1013.35 1340.59 1064.82 1294.23 1108.82C1243.97 1156.53 1196.46 1190.82 1148.98 1213.63C1109.77 1232.48 1065.38 1247.67 1013.26 1260.09C965.838 1271.39 916.398 1279.41 868.578 1287.18C846.018 1290.85 822.688 1294.64 799.758 1298.73C743.988 1308.7 678.428 1322.09 615.008 1345.73C613.608 1346.25 612.228 1346.8 610.828 1347.34H1069.3C1112.59 1335.94 1150.37 1322.38 1184.27 1306.1C1231.74 1283.28 1279.25 1249 1329.52 1201.29C1375.87 1157.29 1420.43 1105.81 1462.09 1056.87C1469.54 1048.13 1477.14 1039.14 1484.49 1030.45C1568 931.793 1654.36 829.781 1763.03 766.468C1813.77 736.914 1866.55 717.115 1920.01 702.532V601.156C1854.53 616.438 1789.6 637.946 1727.72 674C1619.05 737.313 1532.7 839.325 1449.18 937.981H1449.2Z" fill="url(#paint18_linear_0_88)" style="mix-blend-mode:overlay"/>
</g>
<g id="Vector_20">
<path d="M1519.8 1122.92C1512.45 1131.6 1504.84 1140.59 1497.4 1149.33C1455.74 1198.28 1411.19 1249.75 1364.83 1293.75C1343.52 1313.98 1322.7 1331.78 1302.17 1347.34H1438.95C1471.42 1313.31 1502.8 1276.9 1532.7 1241.79C1540.15 1233.04 1547.75 1224.06 1555.1 1215.36C1638.61 1116.71 1724.97 1014.69 1833.63 951.382C1861.87 934.927 1890.74 921.528 1920.02 910.338V805.469C1878.65 818.805 1837.87 835.896 1798.34 858.926C1689.67 922.239 1603.31 1024.25 1519.8 1122.91V1122.92Z" fill="url(#paint19_linear_0_88)" style="mix-blend-mode:overlay"/>
</g>
<g id="Vector_21">
<path d="M1590.38 1307.79C1583.03 1316.48 1575.42 1325.46 1567.98 1334.22C1564.27 1338.58 1560.53 1342.96 1556.77 1347.35H1670.72C1740.68 1266.4 1814.91 1188.24 1904.2 1136.22C1909.45 1133.16 1914.73 1130.23 1920.03 1127.37V1017.45C1902.8 1025.27 1885.75 1034.01 1868.92 1043.8C1760.25 1107.11 1673.9 1209.12 1590.38 1307.78V1307.79Z" fill="url(#paint20_linear_0_88)" style="mix-blend-mode:overlay"/>
</g>
<g id="Vector_22">
<path d="M1920.02 1347.35V1240.54C1873.41 1270.36 1830.89 1307.15 1790.79 1347.35H1920.02Z" fill="url(#paint21_linear_0_88)" style="mix-blend-mode:overlay"/>
</g>
</g>
<defs>
<linearGradient id="paint0_linear_0_88" x1="159.934" y1="8.84616" x2="183.579" y2="91.4125" gradientUnits="userSpaceOnUse">
<stop/>
<stop offset="1" stop-opacity="0"/>
</linearGradient>
<linearGradient id="paint1_linear_0_88" x1="418.038" y1="27.4231" x2="502.387" y2="275.756" gradientUnits="userSpaceOnUse">
<stop/>
<stop offset="1" stop-opacity="0"/>
</linearGradient>
<linearGradient id="paint2_linear_0_88" x1="532.151" y1="47.0763" x2="712.184" y2="440.115" gradientUnits="userSpaceOnUse">
<stop/>
<stop offset="1" stop-opacity="0"/>
</linearGradient>
<linearGradient id="paint3_linear_0_88" x1="650.491" y1="67.5267" x2="934.856" y2="596.65" gradientUnits="userSpaceOnUse">
<stop/>
<stop offset="1" stop-opacity="0"/>
</linearGradient>
<linearGradient id="paint4_linear_0_88" x1="922.191" y1="88.2828" x2="1277.02" y2="804.123" gradientUnits="userSpaceOnUse">
<stop/>
<stop offset="1" stop-opacity="0"/>
</linearGradient>
<linearGradient id="paint5_linear_0_88" x1="922.191" y1="203.122" x2="1328.4" y2="955.277" gradientUnits="userSpaceOnUse">
<stop/>
<stop offset="1" stop-opacity="0"/>
</linearGradient>
<linearGradient id="paint6_linear_0_88" x1="1007.36" y1="384.292" x2="1333.24" y2="1040.03" gradientUnits="userSpaceOnUse">
<stop/>
<stop offset="1" stop-opacity="0"/>
</linearGradient>
<linearGradient id="paint7_linear_0_88" x1="1138.12" y1="566.641" x2="1393.38" y2="1109.48" gradientUnits="userSpaceOnUse">
<stop/>
<stop offset="1" stop-opacity="0"/>
</linearGradient>
<linearGradient id="paint8_linear_0_88" x1="1477.89" y1="752.53" x2="1706.22" y2="1112.89" gradientUnits="userSpaceOnUse">
<stop/>
<stop offset="1" stop-opacity="0"/>
</linearGradient>
<linearGradient id="paint9_linear_0_88" x1="1670.01" y1="944.246" x2="1834.85" y2="1161.34" gradientUnits="userSpaceOnUse">
<stop/>
<stop offset="1" stop-opacity="0"/>
</linearGradient>
<linearGradient id="paint10_linear_0_88" x1="1790.46" y1="1144.44" x2="1872.77" y2="1256.03" gradientUnits="userSpaceOnUse">
<stop/>
<stop offset="1" stop-opacity="0"/>
</linearGradient>
<linearGradient id="paint11_linear_0_88" x1="342.632" y1="17.9847" x2="388.603" y2="187.137" gradientUnits="userSpaceOnUse">
<stop/>
<stop offset="1" stop-opacity="0"/>
</linearGradient>
<linearGradient id="paint12_linear_0_88" x1="477.185" y1="37.1317" x2="607.205" y2="359.807" gradientUnits="userSpaceOnUse">
<stop/>
<stop offset="1" stop-opacity="0"/>
</linearGradient>
<linearGradient id="paint13_linear_0_88" x1="587.951" y1="57.2203" x2="820.218" y2="518.14" gradientUnits="userSpaceOnUse">
<stop/>
<stop offset="1" stop-opacity="0"/>
</linearGradient>
<linearGradient id="paint14_linear_0_88" x1="736.528" y1="77.9149" x2="1067.96" y2="683.182" gradientUnits="userSpaceOnUse">
<stop/>
<stop offset="1" stop-opacity="0"/>
</linearGradient>
<linearGradient id="paint15_linear_0_88" x1="922.161" y1="106.422" x2="1339.94" y2="866.041" gradientUnits="userSpaceOnUse">
<stop/>
<stop offset="1" stop-opacity="0"/>
</linearGradient>
<linearGradient id="paint16_linear_0_88" x1="948.14" y1="293.716" x2="1310.46" y2="1003.34" gradientUnits="userSpaceOnUse">
<stop/>
<stop offset="1" stop-opacity="0"/>
</linearGradient>
<linearGradient id="paint17_linear_0_88" x1="1068.47" y1="475.186" x2="1358.24" y2="1075.93" gradientUnits="userSpaceOnUse">
<stop/>
<stop offset="1" stop-opacity="0"/>
</linearGradient>
<linearGradient id="paint18_linear_0_88" x1="1239.62" y1="659.015" x2="1466.55" y2="1135.32" gradientUnits="userSpaceOnUse">
<stop/>
<stop offset="1" stop-opacity="0"/>
</linearGradient>
<linearGradient id="paint19_linear_0_88" x1="1598.92" y1="847.485" x2="1801.3" y2="1123.53" gradientUnits="userSpaceOnUse">
<stop/>
<stop offset="1" stop-opacity="0"/>
</linearGradient>
<linearGradient id="paint20_linear_0_88" x1="1731.24" y1="1043.03" x2="1855.68" y2="1206.95" gradientUnits="userSpaceOnUse">
<stop/>
<stop offset="1" stop-opacity="0"/>
</linearGradient>
<linearGradient id="paint21_linear_0_88" x1="1852.86" y1="1248.82" x2="1891.99" y2="1305.45" gradientUnits="userSpaceOnUse">
<stop/>
<stop offset="1" stop-opacity="0"/>
</linearGradient>
</defs>
</svg>
